<svg xmlns="http://www.w3.org/2000/svg" viewBox="0 0 32 35">
  <title>command_message</title>
  <polygon points="7.53 27.5 7.53 15 5.53 15 5.53 29.5 6 29.5 7.53 29.5 16 29.5 16 27.5 7.53 27.5" style="fill: #333"/>
  <circle cx="6.5" cy="6.5" r="6.5" style="fill: #333"/>
  <path d="M33,36.5v13H46v-13Z" transform="translate(-14 -14.5)" style="fill: #333"/>
  <path d="M41.56,44.14l1.68.53A3.77,3.77,0,0,1,42,46.76a4,4,0,0,1-5.09-.49,4.47,4.47,0,0,1-1.1-3.2,4.7,4.7,0,0,1,1.11-3.33,3.8,3.8,0,0,1,2.91-1.19,3.57,3.57,0,0,1,2.56.93,3.39,3.39,0,0,1,.88,1.58l-1.72.41A1.78,1.78,0,0,0,39.69,40a2,2,0,0,0-1.55.69,3.36,3.36,0,0,0-.59,2.22,3.6,3.6,0,0,0,.59,2.32,1.9,1.9,0,0,0,1.52.69,1.74,1.74,0,0,0,1.19-.44A2.55,2.55,0,0,0,41.56,44.14Z" transform="translate(-14 -14.5)" style="fill: #fff"/>
</svg>
