<svg xmlns="http://www.w3.org/2000/svg" viewBox="0 0 66 35">
  <title>correlation_identifier</title>
  <g>
    <line x1="6" y1="28.5" x2="16" y2="28.5" style="fill: none;stroke: #333;stroke-miterlimit: 10;stroke-width: 2px"/>
    <line x1="6.53" y1="29.5" x2="6.53" y2="15" style="fill: none;stroke: #333;stroke-miterlimit: 10;stroke-width: 2px"/>
    <circle cx="6.5" cy="6.5" r="6.5" style="fill: #333"/>
    <path d="M16,36.5v13H29v-13Z" transform="translate(3 -14.5)" style="fill: #333"/>
  </g>
  <line x1="40" y1="28.5" x2="50" y2="28.5" style="fill: none;stroke: #333;stroke-miterlimit: 10;stroke-width: 2px"/>
  <line x1="40.53" y1="29.5" x2="40.53" y2="15" style="fill: none;stroke: #333;stroke-miterlimit: 10;stroke-width: 2px"/>
  <circle cx="40.5" cy="6.5" r="6.5" style="fill: #333"/>
  <path d="M50,36.5v13H63v-13Z" transform="translate(3 -14.5)" style="fill: #333"/>
  <g>
    <line x1="31" y1="6.5" x2="18" y2="6.5" style="fill: none;stroke: #333;stroke-miterlimit: 10;stroke-width: 2px"/>
    <g>
      <polyline points="19.75 3.7 17.75 5.7 16.25 7.2" style="fill: none;stroke: #333;stroke-miterlimit: 10;stroke-width: 2px"/>
      <polyline points="19.75 9.3 17.75 7.3 16.25 5.8" style="fill: none;stroke: #333;stroke-miterlimit: 10;stroke-width: 2px"/>
    </g>
  </g>
  <path d="M26.91,47.29H25l-.75-2H20.84l-.71,2H18.29l3.35-8.59h1.83Zm-3.19-3.4-1.18-3.19L21.37,43.9Z" transform="translate(3 -14.5)" style="fill: #fff"/>
  <path d="M53.2,38.71h3.43a9.92,9.92,0,0,1,1.52.08,2.23,2.23,0,0,1,.9.35,2.2,2.2,0,0,1,.66.72,1.94,1.94,0,0,1,.26,1,2,2,0,0,1-1.21,1.86,2.26,2.26,0,0,1,1.21.78,2.07,2.07,0,0,1,.42,1.29,2.55,2.55,0,0,1-.27,1.14,2.3,2.3,0,0,1-.74.88,2.46,2.46,0,0,1-1.16.41q-.43,0-2.09.06H53.2Zm1.73,1.43v2h1.14q1,0,1.26,0a1.15,1.15,0,0,0,.7-.31.91.91,0,0,0,.25-.67.94.94,0,0,0-.22-.65,1,1,0,0,0-.65-.3q-.26,0-1.48,0Zm0,3.42v2.3h1.61a7.85,7.85,0,0,0,1.19-.05,1.07,1.07,0,0,0,.63-.34,1.06,1.06,0,0,0,.24-.73,1.12,1.12,0,0,0-.19-.66,1.06,1.06,0,0,0-.54-.39,5.89,5.89,0,0,0-1.54-.12Z" transform="translate(3 -14.5)" style="fill: #fff"/>
</svg>
