<svg xmlns="http://www.w3.org/2000/svg" viewBox="0 0 62.06 20">
  <title>dead_letter_channel</title>
  <g>
    <path d="M59.29,33.94H40.34a12,12,0,0,1,0,12.13H59.29c.63,0,1.74-2.71,1.74-6.06S59.92,33.94,59.29,33.94Z" transform="translate(1.03 -30)" style="fill: #333"/>
    <path d="M.71,33.94C.08,33.94-1,36.65-1,40S.08,46.06.71,46.06H19.65a11.93,11.93,0,0,1,0-12.12Z" transform="translate(1.03 -30)" style="fill: #333"/>
    <path d="M37.07,32.93a10,10,0,0,0-14.14,0,10.12,10.12,0,0,0-.87,1,10,10,0,0,0,0,12.13,10.12,10.12,0,0,0,.87,1A10,10,0,0,0,37.07,32.93ZM30,42.12l-3.44,3.44-2.12-2.12L27.88,40l-3.44-3.44,2.12-2.12L30,37.88l3.44-3.44,2.12,2.12L32.12,40l3.44,3.44-2.12,2.12Z" transform="translate(1.03 -30)" style="fill: #333"/>
  </g>
</svg>
