<svg xmlns="http://www.w3.org/2000/svg" viewBox="0 0 32 35">
  <title>document_message</title>
  <polygon points="7.53 27.5 7.53 15 5.53 15 5.53 29.5 6 29.5 7.53 29.5 16 29.5 16 27.5 7.53 27.5" style="fill: #333"/>
  <circle cx="6.5" cy="6.5" r="6.5" style="fill: #333"/>
  <path d="M33,36.5v13H46v-13Z" transform="translate(-14 -14.5)" style="fill: #333"/>
  <path d="M36.1,38.71h3.17a6.19,6.19,0,0,1,1.63.16,2.87,2.87,0,0,1,1.3.79A3.75,3.75,0,0,1,43,41.05a6.34,6.34,0,0,1,.28,2A5.65,5.65,0,0,1,43,44.91a3.79,3.79,0,0,1-.92,1.52,3.05,3.05,0,0,1-1.22.69,5.25,5.25,0,0,1-1.54.18H36.1Zm1.73,1.45v5.69h1.29a4.73,4.73,0,0,0,1-.08,1.6,1.6,0,0,0,.7-.36,1.82,1.82,0,0,0,.45-.83A5.6,5.6,0,0,0,41.51,43a5.13,5.13,0,0,0-.18-1.53,2,2,0,0,0-.49-.83,1.65,1.65,0,0,0-.8-.4,7.86,7.86,0,0,0-1.42-.08Z" transform="translate(-14 -14.5)" style="fill: #fff"/>
</svg>
