<svg xmlns="http://www.w3.org/2000/svg" viewBox="0 0 61.5 36.19">
  <title>durable_subscriber</title>
  <polygon points="40 24.87 37.88 27 39.91 29.03 23 29.03 23 21.03 23 18.03 23 10.03 39.91 10.03 37.88 12.07 40 14.19 45.66 8.53 43.54 6.41 40 2.87 37.88 5 39.91 7.03 23 7.03 20 7.03 20 10.03 20 18.03 0 18.03 0 21.03 20 21.03 20 29.03 20 32.03 23 32.03 39.91 32.03 37.88 34.07 40 36.19 45.66 30.53 43.54 28.41 40 24.87" style="fill: #333"/>
  <path d="M54.5,22.6A2.5,2.5,0,0,0,52,25v1h5V25A2.5,2.5,0,0,0,54.5,22.6Z" transform="translate(1 -20.97)" style="fill: none"/>
  <g>
    <path d="M54,23c-1.42,0-2,.61-2,2v1H56V25C56,23.54,55.46,23,54,23Z" transform="translate(1 -20.97)" style="fill: none"/>
    <path d="M58,26V25a3.67,3.67,0,0,0-4-4,3.7,3.7,0,0,0-4,4v1H47.5v9h13V26ZM55.5,31.5a1.5,1.5,0,0,1-3,0v-1a1.5,1.5,0,0,1,3,0ZM56,26H52V25c0-1.42.61-2,2-2s2,.57,2,2Z" transform="translate(1 -20.97)" style="fill: #333"/>
  </g>
</svg>
