<svg xmlns="http://www.w3.org/2000/svg" viewBox="0 0 60 80">
  <title>example</title>
  <path d="M45.29,0H0V80H60V14.64ZM55,16.71v.51H42.69V5h.54ZM55,75H5V5H37.69V22.23H55Z" style="fill: #333"/>
  <rect x="13" y="30.5" width="34" height="5" style="fill: #333"/>
  <g>
    <polygon points="13 42.5 13 47.5 18.5 47.5 23.5 42.5 13 42.5" style="fill: #333"/>
    <rect x="13" y="54.5" width="4.5" height="5" style="fill: #333"/>
    <path d="M45.47,50.94l2.7-2.7L45,45.08l-.37-.37-2.7,2.7A10.42,10.42,0,0,0,39,46.19V42.38H34v3.81a10.42,10.42,0,0,0-2.93,1.22l-2.7-2.7L25.58,47.5l-.74.74,2.7,2.7a10.42,10.42,0,0,0-1.22,2.93H22.5v5h3.81c.05.21.11.42.18.63a10.43,10.43,0,0,0,1,2.31l-2.7,2.7L28.37,68l2.7-2.7A10.42,10.42,0,0,0,34,66.56v3.81h5V66.56a10.42,10.42,0,0,0,2.93-1.22l2.7,2.7,3.54-3.54-2.7-2.7a10.42,10.42,0,0,0,1.22-2.93H50.5v-5H46.69A10.42,10.42,0,0,0,45.47,50.94Zm-3.74,7.13A5.16,5.16,0,0,1,41,59.5a5.52,5.52,0,0,1-2,1.77,5.45,5.45,0,0,1-5,0,5.79,5.79,0,0,1-2.39-2.39,5.45,5.45,0,0,1-.34-4.19c0-.06.05-.12.08-.18a5.3,5.3,0,0,1,2.65-3,5.45,5.45,0,0,1,5,0,5.3,5.3,0,0,1,2.65,3c0,.06.06.12.08.18a5.45,5.45,0,0,1,0,3.39Z" style="fill: #333"/>
  </g>
</svg>
