<svg xmlns="http://www.w3.org/2000/svg" viewBox="0 0 86 32">
  <title>file_transfer</title>
  <rect width="15" height="32" style="fill: #333"/>
  <rect x="71" width="15" height="32" style="fill: #333"/>
  <g>
    <polygon points="24.96 12.49 23.54 13.91 24.64 15 18 15 18 17 24.64 17 23.54 18.09 24.96 19.51 28.46 16.01 28.45 16 28.46 15.99 24.96 12.49" style="fill: #333"/>
    <polygon points="68.46 15.99 64.96 12.49 63.54 13.91 64.64 15 58 15 58 17 64.64 17 63.54 18.09 64.96 19.51 68.46 16.01 68.45 16 68.46 15.99" style="fill: #333"/>
  </g>
  <g>
    <path d="M697.12,432H679v27.69q1-.15,2-.37a51,51,0,0,0,9.24-3.28l.55-.24c1.62-.7,3.28-1.4,5-2a33.25,33.25,0,0,1,5.18-1.36c.65-.11,1.32-.2,2-.27V437.85Zm3.88,6.69v.21h-4.93V434h.22ZM690.39,453.8H684.2v2h1.41a35.66,35.66,0,0,1-4.61,1.48V434h13.07v6.89H701v9.51A44,44,0,0,0,690.39,453.8Z" transform="translate(-648 -432)" style="fill: #333"/>
    <rect x="36.2" y="12.2" width="13.6" height="2" style="fill: #333"/>
    <rect x="36.2" y="17" width="13.6" height="2" style="fill: #333"/>
  </g>
</svg>
