<svg xmlns="http://www.w3.org/2000/svg" viewBox="0 0 61.66 35.32">
  <title>guaranteed_messaging</title>
  <g>
    <path d="M30,64.74c-5.34,0-9.68-1.27-9.68-2.84v4.26C20.32,67.73,24.66,69,30,69s9.68-1.27,9.68-2.84V61.9C39.68,63.47,35.34,64.74,30,64.74Z" transform="translate(0.83 -33.68)" style="fill: #333"/>
    <path d="M36.39,57.65a26.39,26.39,0,0,1-6.39.71,26.39,26.39,0,0,1-6.39-.71c-2-.52-3.29-1.28-3.29-2.13v4.26A1.41,1.41,0,0,0,21,60.84c1.44,1,4.91,1.77,9,1.77s7.53-.73,9-1.77a1.41,1.41,0,0,0,.71-1.06V55.52C39.68,56.37,38.4,57.12,36.39,57.65Z" transform="translate(0.83 -33.68)" style="fill: #333"/>
    <path d="M30,47c-5.34,0-9.68,1.27-9.68,2.84v3.55A1.41,1.41,0,0,0,21,54.45c1.44,1,4.91,1.77,9,1.77s7.53-.73,9-1.77a1.41,1.41,0,0,0,.71-1.06V49.84C39.68,48.27,35.34,47,30,47Z" transform="translate(0.83 -33.68)" style="fill: #333"/>
  </g>
  <polygon points="59.29 3.95 55.34 0 52.97 2.37 55.24 4.64 0 4.64 0 7.99 55.24 7.99 52.97 10.27 55.34 12.64 61.66 6.32 59.29 3.95" style="fill: #333"/>
</svg>
