<svg xmlns="http://www.w3.org/2000/svg" viewBox="0 0 34 37">
  <title>message_expiration</title>
  <g>
    <path d="M30,27A12.94,12.94,0,0,1,42.9,41.51a11.45,11.45,0,0,1,2.83,1.33A16,16,0,1,0,28.52,55.93a11.46,11.46,0,0,1-.5-3.09A13,13,0,0,1,30,27Z" transform="translate(-14 -24)" style="fill: #333"/>
    <path d="M44.86,45.9A8.5,8.5,0,0,0,31,52.5c0,.15,0,.3,0,.45a8.49,8.49,0,1,0,13.83-7ZM39.5,47H41v6H38V47.21A5.47,5.47,0,0,1,39.5,47ZM41,58H38V55h3v3Z" transform="translate(-14 -24)" style="fill: #333"/>
  </g>
  <polygon points="17.5 14.5 17.5 6.5 14.5 6.5 14.5 17.5 15 17.5 17.5 17.5 23 17.5 23 14.5 17.5 14.5" style="fill: #333"/>
</svg>
