<svg xmlns="http://www.w3.org/2000/svg" viewBox="0 0 62.06 40.16">
  <title>message_bus</title>
  <path d="M720.29,441.94H705.15l3.36-3.36-1.41-1.41L706,438.26v-6.52l1.09,1.09,1.41-1.41-3.5-3.5h0l-3.5,3.5,1.41,1.41,1.09-1.09v6.52l-1.09-1.09-1.41,1.41,3.36,3.36h-27.7l3.36-3.36-1.41-1.41L678,438.26v-6.52l1.09,1.09,1.41-1.41-3.5-3.5h0l-3.5,3.5,1.41,1.41,1.09-1.09v6.52l-1.09-1.09-1.41,1.41,3.36,3.36H661.71c-.63,0-1.74,2.71-1.74,6.06s1.11,6.06,1.74,6.06h29.14l-3.36,3.36,1.41,1.41,1.09-1.09v6.52l-1.09-1.09-1.41,1.41,3.5,3.5h0l3.5-3.5-1.41-1.41L692,464.26v-6.52l1.09,1.09,1.41-1.41-3.36-3.36h29.14c.63,0,1.74-2.71,1.74-6.06S720.92,441.94,720.29,441.94Z" transform="translate(-659.97 -427.92)" style="fill: #333"/>
</svg>
