<svg xmlns="http://www.w3.org/2000/svg" viewBox="0 0 32 34.5">
  <title>message_3</title>
  <polyline points="16 28 6.53 28 6.53 15" style="fill: none;stroke: #333;stroke-miterlimit: 10;stroke-width: 2px"/>
  <circle cx="6.5" cy="6.5" r="6.5" style="fill: #333"/>
  <rect x="19" y="21.5" width="13" height="13" style="fill: #333"/>
  <path d="M37.55,45l1.59-.19a1.51,1.51,0,0,0,.41.93,1.12,1.12,0,0,0,.81.32,1.11,1.11,0,0,0,.86-.39,1.5,1.5,0,0,0,.35-1,1.4,1.4,0,0,0-.33-1,1.06,1.06,0,0,0-.81-.36,2.87,2.87,0,0,0-.76.12L39.84,42a1.44,1.44,0,0,0,1-.29,1,1,0,0,0,.35-.82.89.89,0,0,0-.94-.95,1,1,0,0,0-.72.29,1.38,1.38,0,0,0-.36.86l-1.52-.26a3.39,3.39,0,0,1,.48-1.25,2.16,2.16,0,0,1,.89-.73,3,3,0,0,1,1.28-.27,2.55,2.55,0,0,1,1.95.77,2,2,0,0,1-.63,3.23,2,2,0,0,1,1.18.71,2.06,2.06,0,0,1,.44,1.33,2.58,2.58,0,0,1-.83,1.93,3.09,3.09,0,0,1-4,.13A2.64,2.64,0,0,1,37.55,45Z" transform="translate(-15 -15)" style="fill: #fff"/>
</svg>
