<svg xmlns="http://www.w3.org/2000/svg" viewBox="0 0 63 39">
  <title>message_router</title>
  <g>
    <path d="M657.5,430.5v39h63v-39Zm61,37h-59v-35h59Z" transform="translate(-657.5 -430.5)" style="fill: #333"/>
    <path d="M697.5,447.5a2.5,2.5,0,1,0,2.29,3.5H712v-2H699.79A2.5,2.5,0,0,0,697.5,447.5Z" transform="translate(-657.5 -430.5)" style="fill: #333"/>
    <path d="M680.5,452.5A2.5,2.5,0,0,0,683,450s0,0,0-.07l12.88-8a2.48,2.48,0,0,0,3.92-.88H712v-2H699.79a2.5,2.5,0,0,0-4.79,1s0,0,0,.07l-12.88,8a2.48,2.48,0,0,0-3.92.88H666v2h12.21A2.5,2.5,0,0,0,680.5,452.5Z" transform="translate(-657.5 -430.5)" style="fill: #333"/>
    <path d="M697.5,457.5a2.5,2.5,0,1,0,2.29,3.5H712v-2H699.79A2.5,2.5,0,0,0,697.5,457.5Z" transform="translate(-657.5 -430.5)" style="fill: #333"/>
  </g>
</svg>
