<svg xmlns="http://www.w3.org/2000/svg" viewBox="0 0 32 34.5">
  <title>message_2</title>
  <polyline points="16 28 6.53 28 6.53 15" style="fill: none;stroke: #333;stroke-miterlimit: 10;stroke-width: 2px"/>
  <circle cx="6.5" cy="6.5" r="6.5" style="fill: #333"/>
  <rect x="19" y="21.5" width="13" height="13" style="fill: #333"/>
  <path d="M43.29,45.64v1.53H37.51a4,4,0,0,1,.56-1.64,10.94,10.94,0,0,1,1.85-2.06,11.65,11.65,0,0,0,1.37-1.41,1.81,1.81,0,0,0,.34-1,1.15,1.15,0,0,0-.3-.85,1.26,1.26,0,0,0-1.64,0,1.59,1.59,0,0,0-.35,1l-1.64-.16a2.69,2.69,0,0,1,.92-2,3.09,3.09,0,0,1,1.93-.59,2.8,2.8,0,0,1,2,.69,2.25,2.25,0,0,1,.73,1.71,3,3,0,0,1-.21,1.1,4.49,4.49,0,0,1-.66,1.1,10.62,10.62,0,0,1-1.08,1.1q-.78.71-1,.95a2.84,2.84,0,0,0-.34.46Z" transform="translate(-15 -15)" style="fill: #fff"/>
</svg>
