<svg xmlns="http://www.w3.org/2000/svg" viewBox="0 0 60 50">
  <title>message_broker</title>
  <rect x="22" y="20" width="16" height="10" style="fill: #333"/>
  <path d="M36,17v6H24V17H36m2-2H22V25H38V15Z" transform="translate(0 -15)" style="fill: #333"/>
  <path d="M36,57v6H24V57H36m2-2H22V65H38V55Z" transform="translate(0 -15)" style="fill: #333"/>
  <path d="M58,27v6H46V27H58m2-2H44V35H60V25Z" transform="translate(0 -15)" style="fill: #333"/>
  <path d="M58,47v6H46V47H58m2-2H44V55H60V45Z" transform="translate(0 -15)" style="fill: #333"/>
  <path d="M14,27v6H2V27H14m2-2H0V35H16V25Z" transform="translate(0 -15)" style="fill: #333"/>
  <path d="M14,47v6H2V47H14m2-2H0V55H16V45Z" transform="translate(0 -15)" style="fill: #333"/>
  <line x1="15" y1="34" x2="45" y2="16" style="fill: none;stroke: #333;stroke-miterlimit: 10;stroke-width: 2px"/>
  <line x1="45" y1="34" x2="15" y2="16" style="fill: none;stroke: #333;stroke-miterlimit: 10;stroke-width: 2px"/>
  <line x1="30" y1="10" x2="30" y2="41" style="fill: none;stroke: #333;stroke-miterlimit: 10;stroke-width: 2px"/>
</svg>
