<svg xmlns="http://www.w3.org/2000/svg" viewBox="0 0 47 23.5">
  <title>message_sequence</title>
  <g>
    <polygon points="39.5 0 28.5 0 26.5 0 26.5 2 26.5 4.64 25.41 3.54 23.99 4.96 27.49 8.46 27.5 8.45 27.51 8.46 31.01 4.96 29.59 3.54 28.5 4.64 28.5 2 39.5 2 39.5 8 41.5 8 41.5 2 41.5 0 39.5 0" style="fill: #333"/>
    <polygon points="7.5 0 6.5 0 5.5 0 5.5 4.64 4.41 3.54 2.99 4.96 6.49 8.46 6.5 8.45 6.51 8.46 10.01 4.96 8.59 3.54 7.5 4.64 7.5 2 19.5 2 19.5 8 21.5 8 21.5 2 21.5 0 19.5 0 7.5 0" style="fill: #333"/>
  </g>
  <rect y="10.5" width="13" height="13" style="fill: #333"/>
  <rect x="17" y="10.5" width="13" height="13" style="fill: #333"/>
  <rect x="34" y="10.5" width="13" height="13" style="fill: #333"/>
  <path d="M14.39,49.63H12.74V43.42a5.68,5.68,0,0,1-2.13,1.25V43.17a4.76,4.76,0,0,0,1.4-.8,3,3,0,0,0,1-1.37h1.34Z" transform="translate(-6.5 -28.25)" style="fill: #fff"/>
  <path d="M32.79,48.1v1.53H27A4,4,0,0,1,27.58,48a10.94,10.94,0,0,1,1.85-2.06,11.65,11.65,0,0,0,1.37-1.41,1.81,1.81,0,0,0,.34-1,1.15,1.15,0,0,0-.3-.85,1.26,1.26,0,0,0-1.64,0,1.59,1.59,0,0,0-.35,1l-1.64-.16a2.69,2.69,0,0,1,.92-2A3.09,3.09,0,0,1,30.06,41a2.79,2.79,0,0,1,2,.69,2.25,2.25,0,0,1,.73,1.71,3,3,0,0,1-.21,1.1,4.49,4.49,0,0,1-.66,1.1,10.55,10.55,0,0,1-1.08,1.1q-.78.71-1,.95a2.84,2.84,0,0,0-.34.46Z" transform="translate(-6.5 -28.25)" style="fill: #fff"/>
  <path d="M44.15,47.35l1.59-.19a1.51,1.51,0,0,0,.41.93,1.12,1.12,0,0,0,.81.32,1.11,1.11,0,0,0,.86-.39,1.5,1.5,0,0,0,.35-1,1.4,1.4,0,0,0-.33-1,1.06,1.06,0,0,0-.81-.36,2.87,2.87,0,0,0-.76.12l.18-1.34a1.44,1.44,0,0,0,1-.29,1,1,0,0,0,.35-.82.89.89,0,0,0-.94-.95,1,1,0,0,0-.72.29,1.38,1.38,0,0,0-.36.86l-1.52-.26A3.39,3.39,0,0,1,44.75,42a2.16,2.16,0,0,1,.89-.73A3,3,0,0,1,46.92,41a2.55,2.55,0,0,1,1.95.77A2,2,0,0,1,48.23,45a2,2,0,0,1,1.18.71A2.06,2.06,0,0,1,49.85,47,2.58,2.58,0,0,1,49,49a3.09,3.09,0,0,1-4,.13A2.64,2.64,0,0,1,44.15,47.35Z" transform="translate(-6.5 -28.25)" style="fill: #fff"/>
</svg>
