<svg xmlns="http://www.w3.org/2000/svg" viewBox="0 0 32 66.5">
  <title>message_e</title>
  <line x1="6" y1="28" x2="16" y2="28" style="fill: none;stroke: #333;stroke-miterlimit: 10;stroke-width: 2px"/>
  <line x1="6" y1="44" x2="16" y2="44" style="fill: none;stroke: #333;stroke-miterlimit: 10;stroke-width: 2px"/>
  <polyline points="16 60 6.53 60 6.53 15" style="fill: none;stroke: #333;stroke-miterlimit: 10;stroke-width: 2px"/>
  <circle cx="6.5" cy="6.5" r="6.5" style="fill: #333"/>
  <g>
    <polygon points="19 21.5 19 26.09 23.59 21.5 19 21.5" style="fill: #333"/>
    <polygon points="26.41 21.5 19 28.91 19 33.09 30.59 21.5 26.41 21.5" style="fill: #333"/>
    <polygon points="20.41 34.5 24.59 34.5 32 27.09 32 22.91 20.41 34.5" style="fill: #333"/>
    <polygon points="32 34.5 32 29.91 27.41 34.5 32 34.5" style="fill: #333"/>
  </g>
  <g>
    <polygon points="19 50.5 23.59 50.5 19 45.91 19 50.5" style="fill: #333"/>
    <polygon points="19 43.09 26.41 50.5 30.59 50.5 19 38.91 19 43.09" style="fill: #333"/>
    <polygon points="32 49.09 32 44.91 24.59 37.5 20.41 37.5 32 49.09" style="fill: #333"/>
    <polygon points="32 37.5 27.41 37.5 32 42.09 32 37.5" style="fill: #333"/>
  </g>
  <g>
    <rect x="19" y="53.5" width="3.5" height="13" style="fill: #333"/>
    <rect x="24.5" y="53.5" width="3" height="13" style="fill: #333"/>
    <rect x="29.5" y="53.5" width="2.5" height="13" style="fill: #333"/>
  </g>
</svg>
