<svg xmlns="http://www.w3.org/2000/svg" viewBox="0 0 63 39">
  <title>message_dispatcher</title>
  <rect x="9" y="1" width="53" height="37" style="fill: none;stroke: #333;stroke-miterlimit: 10;stroke-width: 2px"/>
  <rect x="49" y="36" width="8" height="8" transform="translate(-11.76 28.69) rotate(-45)" style="fill: #333"/>
  <rect x="25.25" y="36" width="8" height="8" transform="translate(-18.72 11.9) rotate(-45)" style="fill: #333"/>
  <rect x="43" y="26" width="8" height="8" transform="translate(-6.45 21.52) rotate(-45)" style="fill: #333"/>
  <rect x="43" y="46" width="8" height="8" transform="translate(-20.59 27.38) rotate(-45)" style="fill: #333"/>
  <polygon points="22.29 17.13 18.34 13.18 15.97 15.55 18.24 17.82 0 17.82 0 21.18 18.24 21.18 15.97 23.45 18.34 25.82 24.66 19.5 22.29 17.13" style="fill: #333"/>
  <polygon points="48.33 19.49 44.83 15.99 43.42 17.41 44.51 18.5 32 18.5 32 20.5 44.51 20.5 43.42 21.59 44.83 23.01 48.33 19.51 48.33 19.5 48.33 19.49" style="fill: #333"/>
  <polygon points="44.31 11.51 39.53 10.23 39.02 12.16 40.51 12.56 29.67 18.82 30.67 20.55 41.51 14.3 41.11 15.79 43.04 16.31 44.32 11.53 44.31 11.52 44.31 11.51" style="fill: #333"/>
  <polygon points="44.31 27.48 39.53 28.76 39.02 26.83 40.51 26.43 29.67 20.17 30.67 18.44 41.51 24.7 41.11 23.2 43.04 22.69 44.32 27.47 44.31 27.47 44.31 27.48" style="fill: #333"/>
</svg>
