<svg xmlns="http://www.w3.org/2000/svg" viewBox="0 0 101 69.88">
  <title>messaging</title>
  <g>
    <path d="M78.61,58.88H-18.61c-1,0-1.89,2.69-1.89,6s.85,6,1.89,6H78.61c1,0,1.89-2.69,1.89-6S79.65,58.88,78.61,58.88Z" transform="translate(20.5 -1)" style="fill: #333"/>
    <rect width="26.19" height="20.57" style="fill: #333"/>
    <rect x="37.41" width="26.19" height="20.57" style="fill: #333"/>
    <rect x="74.81" width="26.19" height="20.57" style="fill: #333"/>
    <polygon points="45 51.83 45 31.91 47.04 33.95 49.16 31.83 45.62 28.29 43.5 26.17 41.38 28.29 37.84 31.83 39.96 33.95 42 31.91 42 51.83 45 51.83" style="fill: #333"/>
    <polygon points="56 26.17 56 46.09 53.96 44.05 51.84 46.17 55.38 49.71 57.5 51.83 59.62 49.71 63.16 46.17 61.04 44.05 59 46.09 59 26.17 56 26.17" style="fill: #333"/>
    <polygon points="8 51.83 8 31.91 10.04 33.95 12.16 31.83 8.62 28.29 6.5 26.17 0.84 31.83 2.96 33.95 5 31.91 5 51.83 8 51.83" style="fill: #333"/>
    <polygon points="19 26.17 19 46.09 16.96 44.05 14.84 46.17 20.5 51.83 22.62 49.71 26.16 46.17 24.04 44.05 22 46.09 22 26.17 19 26.17" style="fill: #333"/>
    <polygon points="82 51.83 82 31.91 84.04 33.95 86.16 31.83 82.62 28.29 80.5 26.17 78.38 28.29 74.84 31.83 76.96 33.95 79 31.91 79 51.83 82 51.83" style="fill: #333"/>
    <polygon points="93 26.17 93 46.09 90.96 44.05 88.84 46.17 92.38 49.71 94.5 51.83 96.62 49.71 100.16 46.17 98.04 44.05 96 46.09 96 26.17 93 26.17" style="fill: #333"/>
  </g>
</svg>
