<svg xmlns="http://www.w3.org/2000/svg" viewBox="0 0 33 50.5">
  <title>message_expiration_parts</title>
  <line x1="6" y1="28" x2="16" y2="28" style="fill: none;stroke: #333;stroke-miterlimit: 10;stroke-width: 2px"/>
  <polyline points="16 44 6.53 44 6.53 15" style="fill: none;stroke: #333;stroke-miterlimit: 10;stroke-width: 2px"/>
  <rect x="19" y="37.5" width="13" height="13" style="fill: #333"/>
  <circle cx="6.5" cy="6.5" r="6.5" style="fill: #333"/>
  <line x1="6" y1="28" x2="16" y2="28" style="fill: none;stroke: #333;stroke-miterlimit: 10;stroke-width: 2px"/>
  <polyline points="16 44 6.53 44 6.53 15" style="fill: none;stroke: #333;stroke-miterlimit: 10;stroke-width: 2px"/>
  <rect x="19" y="37.5" width="13" height="13" style="fill: #333"/>
  <circle cx="6.5" cy="6.5" r="6.5" style="fill: #333"/>
  <g>
    <g>
      <path d="M40.59,39a5.33,5.33,0,0,1,5.31,6,4.71,4.71,0,0,1,1.16.55A6.59,6.59,0,1,0,40,50.91a4.72,4.72,0,0,1-.21-1.27A5.35,5.35,0,0,1,40.59,39Z" transform="translate(-15 -17)" style="fill: #333"/>
      <path d="M46.71,46.78A3.5,3.5,0,0,0,41,49.5c0,.06,0,.12,0,.18a3.5,3.5,0,1,0,5.7-2.9Zm-2.21.45h.62v2.47H43.88V47.32A2.25,2.25,0,0,1,44.5,47.24Zm.62,4.53H43.88V50.53h1.24v1.24Z" transform="translate(-15 -17)" style="fill: #333"/>
    </g>
    <polygon points="26.21 26.73 26.21 23.44 24.97 23.44 24.97 27.97 25.18 27.97 26.21 27.97 28.47 27.97 28.47 26.73 26.21 26.73" style="fill: #333"/>
  </g>
</svg>
