<svg xmlns="http://www.w3.org/2000/svg" viewBox="0 0 63 39">
  <title>messaging_bridge</title>
  <path d="M61.5,59.5h-63v-39h63Zm-61-2h59v-35H.5Z" transform="translate(1.5 -20.5)" style="fill: #333"/>
  <path d="M52.5,42.25H50v-4H47V41a18.46,18.46,0,0,0-34,0V38.25H10v4H7.5v2H10v6h3v-6H47v6h3v-6h2.5Zm-35.5,0H14.65A16.55,16.55,0,0,1,17,38.13Zm6,0H19V36a16.52,16.52,0,0,1,4-2.66Zm6,0H25V32.53a16.37,16.37,0,0,1,4-.74Zm6,0H31V31.79a16.36,16.36,0,0,1,4,.74Zm6,0H37V33.32A16.52,16.52,0,0,1,41,36Zm2,0V38.13a16.55,16.55,0,0,1,2.35,4.12Z" transform="translate(1.5 -20.5)" style="fill: #333"/>
</svg>
