<svg xmlns="http://www.w3.org/2000/svg" viewBox="0 0 15.94 15.94">
  <title>parts_c</title>
  <g>
    <path d="M36.37,35.17l-11.2,11.2a8,8,0,0,0,2.61,1.31l9.9-9.9A8,8,0,0,0,36.37,35.17Z" transform="translate(-22.03 -32.03)" style="fill: #333"/>
    <path d="M32.22,32.32l-9.9,9.9a8,8,0,0,0,1.31,2.61l11.2-11.2A8,8,0,0,0,32.22,32.32Z" transform="translate(-22.03 -32.03)" style="fill: #333"/>
    <path d="M22,39.43l7.4-7.4A8,8,0,0,0,22,39.43Z" transform="translate(-22.03 -32.03)" style="fill: #333"/>
    <path d="M38,40.57,30.57,48A8,8,0,0,0,38,40.57Z" transform="translate(-22.03 -32.03)" style="fill: #333"/>
  </g>
</svg>
