<svg xmlns="http://www.w3.org/2000/svg" viewBox="0 0 58 15">
  <title>pipes_and_filters</title>
  <g>
    <polygon points="4.96 3.99 3.54 5.41 4.64 6.5 0 6.5 0 8.5 4.64 8.5 3.54 9.59 4.96 11.01 8.46 7.51 8.45 7.5 8.46 7.49 4.96 3.99" style="fill: #333"/>
    <polygon points="31.96 3.99 30.54 5.41 31.64 6.5 27 6.5 27 0 8.5 0 8.5 15 27 15 27 8.5 31.64 8.5 30.54 9.59 31.96 11.01 35.46 7.51 35.45 7.5 35.46 7.49 31.96 3.99" style="fill: #333"/>
    <polygon points="54 6.5 54 0 35.5 0 35.5 15 54 15 54 8.5 58 8.5 58 6.5 54 6.5" style="fill: #333"/>
  </g>
</svg>
