<svg xmlns="http://www.w3.org/2000/svg" viewBox="0 0 63 39">
  <title>polling_consumer</title>
  <rect x="19" y="1" width="43" height="37" style="fill: none;stroke: #333;stroke-miterlimit: 10;stroke-width: 2px"/>
  <polygon points="35.29 17.13 31.34 13.18 28.97 15.55 31.24 17.82 0 17.82 0 21.18 31.24 21.18 28.97 23.45 31.34 25.82 37.66 19.5 35.29 17.13" style="fill: #333"/>
  <rect x="49" y="36" width="8" height="8" transform="translate(-11.76 28.69) rotate(-45)" style="fill: #333"/>
  <path d="M40,32a7.9,7.9,0,0,0-2.13.3l.79-1.4-1.74-1-2.44,4.31h0l4.31,2.44,1-1.74-1.3-.73A5.94,5.94,0,0,1,40,34a6,6,0,0,1,0,12,6,6,0,0,1-3.76-1.34l-1.42,1.42A8,8,0,1,0,40,32Z" transform="translate(1 -20.5)" style="fill: #333"/>
</svg>
