<svg xmlns="http://www.w3.org/2000/svg" viewBox="0 0 51.66 39.31">
  <title>publish_subscribe</title>
  <polygon points="46 25.31 51.66 19.66 49.54 17.54 46 14 43.88 16.12 45.91 18.16 26 18.16 26 7.16 45.91 7.16 43.88 9.19 46 11.31 51.66 5.66 49.54 3.54 46 0 43.88 2.12 45.91 4.16 26 4.16 23 4.16 23 18.16 0 18.16 0 21.16 23 21.16 23 35.16 26 35.16 45.91 35.16 43.88 37.19 46 39.31 51.66 33.66 49.54 31.54 46 28 43.88 30.12 45.91 32.16 26 32.16 26 21.16 45.91 21.16 43.88 23.19 46 25.31" style="fill: #333"/>
</svg>
