<svg xmlns="http://www.w3.org/2000/svg" viewBox="0 0 30.5 23.02">
  <title>return_address</title>
  <g>
    <polygon points="25 2.47 25 0 0 0 0 2.47 12.5 8.41 25 2.47" style="fill: #333"/>
    <path d="M42,32l.5,0V27.67L32.33,32.5,30,33.61,27.67,32.5,17.5,27.67V40H34A8,8,0,0,1,42,32Z" transform="translate(-17.5 -22.98)" style="fill: #333"/>
    <path d="M42,38l.51.51V38a2.32,2.32,0,0,0-.42,0Z" transform="translate(-17.5 -22.98)" style="fill: #333"/>
    <path d="M42.08,36.67a3.59,3.59,0,0,1,.42,0v-.56l-.51.51Z" transform="translate(-17.5 -22.98)" style="fill: #333"/>
    <path d="M42.5,34,42,34a6,6,0,0,0-6,6v0a6,6,0,1,0,6.5-6Zm-.42,10a3.67,3.67,0,0,1-3.66-3.66h1.33A2.33,2.33,0,1,0,42.5,38v.47l.22.22-.22.22-.73.73-2.33-2.33h0L41.77,35l.73.73.22.22-.22.22v.56A3.66,3.66,0,0,1,42.08,44Z" transform="translate(-17.5 -22.98)" style="fill: #333"/>
    <polygon points="25.21 12.96 25 12.74 25 13.18 25.21 12.96" style="fill: #fff"/>
    <polygon points="25 15.53 25 15.96 25.21 15.75 25 15.53" style="fill: #fff"/>
  </g>
</svg>
