<svg xmlns="http://www.w3.org/2000/svg" viewBox="0 0 63 39">
  <title>selective_consumer</title>
  <rect x="9" y="1" width="53" height="37" style="fill: none;stroke: #333;stroke-miterlimit: 10;stroke-width: 2px"/>
  <rect x="49" y="36" width="8" height="8" transform="translate(-11.76 28.69) rotate(-45)" style="fill: #333"/>
  <path d="M43.31,35.79l-2.12,2.12.59.59H38.35a7,7,0,0,0-13.67,0h-3l-.87-.87-3.95-3.95-2.37,2.37,2.27,2.27H-1v3.35H16.72l-2.27,2.27,2.37,2.37,4.82-4.82h3a7,7,0,0,0,13.67,0h3.43l-.59.59,2.12,2.12L47.52,40Zm.89,4.71h-5.7c0-.17,0-.33,0-.5s0-.33,0-.5h5.7l-1.59-1.59.71-.71,2.8,2.8-2.8,2.8-.71-.71Zm-19.65,0H18v-1h6.54c0,.17,0,.33,0,.5S24.53,40.33,24.54,40.5Zm7.82,3.75H30.72V42.6h1.65ZM32.22,42H30.72q0-.32,0-.39c0-.05,0-.09,0-.14a3.37,3.37,0,0,1,0-.5,2.08,2.08,0,0,1,.16-.5l0-.05a3.42,3.42,0,0,1,.84-.95l.12-.11.47-.39a3.5,3.5,0,0,0,.39-.37,1.08,1.08,0,0,0,.07-.12A1,1,0,0,0,33,38a1.07,1.07,0,0,0-.38-.82,1.5,1.5,0,0,0-1-.34,1.57,1.57,0,0,0-1,.36,1.9,1.9,0,0,0-.58,1.09l-1.51-.19a2.51,2.51,0,0,1,.89-1.78,3.17,3.17,0,0,1,2.18-.73,3.28,3.28,0,0,1,2.26.74A2.24,2.24,0,0,1,34.6,38a1.84,1.84,0,0,1-.07.46,2,2,0,0,1-.21.5l0,.07a3.23,3.23,0,0,1-.35.43,10.35,10.35,0,0,1-1,.89l-.11.11a2.59,2.59,0,0,0-.47.5l-.07.09a1.34,1.34,0,0,0-.09.41A4.3,4.3,0,0,0,32.22,42Z" transform="translate(1 -20.5)" style="fill: #333"/>
</svg>
