<svg xmlns="http://www.w3.org/2000/svg" viewBox="0 0 63 39">
  <title>service_activator</title>
  <rect x="9" y="1" width="53" height="37" style="fill: none;stroke: #333;stroke-miterlimit: 10;stroke-width: 2px"/>
  <path d="M53,37.17,55.83,40,53,42.83,50.17,40,53,37.17m0-2.83L47.34,40,53,45.66,58.66,40,53,34.34Z" transform="translate(1 -20.5)" style="fill: #333"/>
  <rect x="25.25" y="36" width="8" height="8" transform="translate(-18.72 11.9) rotate(-45)" style="fill: #333"/>
  <polygon points="22.29 17.13 18.34 13.18 15.97 15.55 18.24 17.82 0 17.82 0 21.18 18.24 21.18 15.97 23.45 18.34 25.82 24.66 19.5 22.29 17.13" style="fill: #333"/>
  <polygon points="48.33 19.49 44.83 15.99 43.42 17.41 44.51 18.5 32 18.5 32 20.5 44.51 20.5 43.42 21.59 44.83 23.01 48.33 19.51 48.33 19.5 48.33 19.49" style="fill: #333"/>
</svg>
